<svg width="21" height="21" viewBox="0 0 21 21" fill="none" xmlns="http://www.w3.org/2000/svg">
<path d="M10.5 7.24548C8.708 7.24548 7.2456 8.70788 7.2456 10.4999C7.2456 12.2919 8.708 13.7543 10.5 13.7543C12.292 13.7543 13.7544 12.2919 13.7544 10.4999C13.7544 8.70788 12.292 7.24548 10.5 7.24548ZM20.2607 10.4999C20.2607 9.15221 20.2729 7.81676 20.1973 6.47155C20.1216 4.90905 19.7651 3.52233 18.6226 2.37975C17.4775 1.23473 16.0933 0.880731 14.5308 0.805047C13.1831 0.729364 11.8476 0.741571 10.5024 0.741571C9.15478 0.741571 7.81933 0.729364 6.47411 0.805047C4.91161 0.880731 3.5249 1.23718 2.38232 2.37975C1.2373 3.52477 0.883295 4.90905 0.807611 6.47155C0.731927 7.81921 0.744134 9.15466 0.744134 10.4999C0.744134 11.8451 0.731927 13.183 0.807611 14.5282C0.883295 16.0907 1.23974 17.4774 2.38232 18.62C3.52734 19.765 4.91161 20.119 6.47411 20.1947C7.82177 20.2704 9.15722 20.2582 10.5024 20.2582C11.8501 20.2582 13.1855 20.2704 14.5308 20.1947C16.0933 20.119 17.48 19.7626 18.6226 18.62C19.7676 17.475 20.1216 16.0907 20.1973 14.5282C20.2754 13.183 20.2607 11.8475 20.2607 10.4999ZM10.5 15.5072C7.729 15.5072 5.49267 13.2709 5.49267 10.4999C5.49267 7.72887 7.729 5.49255 10.5 5.49255C13.271 5.49255 15.5073 7.72887 15.5073 10.4999C15.5073 13.2709 13.271 15.5072 10.5 15.5072ZM15.7124 6.4569C15.0654 6.4569 14.543 5.93444 14.543 5.28747C14.543 4.6405 15.0654 4.11804 15.7124 4.11804C16.3594 4.11804 16.8818 4.6405 16.8818 5.28747C16.882 5.44109 16.8519 5.59325 16.7932 5.73522C16.7345 5.87719 16.6484 6.00618 16.5397 6.11481C16.4311 6.22344 16.3021 6.30958 16.1601 6.36828C16.0182 6.42698 15.866 6.45709 15.7124 6.4569Z" fill="#53CD8B"/>
</svg>
