<svg width="26" height="15" viewBox="0 0 26 15" fill="none" xmlns="http://www.w3.org/2000/svg">
<path d="M24.6007 0.974805C24.7677 0.413281 24.6007 0 23.7972 0H21.1386C20.4615 0 20.15 0.354883 19.983 0.750195C19.983 0.750195 18.6288 4.03398 16.7149 6.16328C16.0965 6.77871 15.8122 6.97637 15.4736 6.97637C15.3066 6.97637 15.0493 6.77871 15.0493 6.21719V0.974805C15.0493 0.300976 14.8597 0 14.3 0H10.1202C9.69585 0 9.44307 0.314453 9.44307 0.606445C9.44307 1.24434 10.4 1.39258 10.4993 3.18945V7.08867C10.4993 7.94219 10.3458 8.09941 10.0073 8.09941C9.10453 8.09941 6.91078 4.80215 5.61078 1.02871C5.34898 0.296484 5.09168 0 4.41009 0H1.75141C0.993072 0 0.8396 0.354883 0.8396 0.750195C0.8396 1.45098 1.74238 4.93242 5.04203 9.53242C7.24029 12.6725 10.3368 14.375 13.1535 14.375C14.8462 14.375 15.0538 13.9977 15.0538 13.3463C15.0538 10.3455 14.9004 10.0625 15.749 10.0625C16.1417 10.0625 16.8188 10.2602 18.3986 11.774C20.2042 13.5709 20.5021 14.375 21.5132 14.375H24.1719C24.9302 14.375 25.3139 13.9977 25.0927 13.252C24.5872 11.6842 21.1702 8.45879 21.0167 8.24316C20.624 7.74004 20.7368 7.51543 21.0167 7.06621C21.0212 7.06172 24.2667 2.51562 24.6007 0.974805Z" fill="#53CD8B"/>
</svg>
