<svg width="18" height="14" viewBox="0 0 18 14" fill="none" xmlns="http://www.w3.org/2000/svg">
<path d="M3.5 0.125C2.77065 0.125 2.07118 0.414731 1.55546 0.930456C1.03973 1.44618 0.75 2.14565 0.75 2.875V3.15138L9 7.594L17.25 3.15275V2.875C17.25 2.14565 16.9603 1.44618 16.4445 0.930456C15.9288 0.414731 15.2293 0.125 14.5 0.125H3.5ZM17.25 4.71338L9.32588 8.98C9.22572 9.03392 9.11375 9.06214 9 9.06214C8.88625 9.06214 8.77428 9.03392 8.67413 8.98L0.75 4.71338V11.125C0.75 11.8543 1.03973 12.5538 1.55546 13.0695C2.07118 13.5853 2.77065 13.875 3.5 13.875H14.5C15.2293 13.875 15.9288 13.5853 16.4445 13.0695C16.9603 12.5538 17.25 11.8543 17.25 11.125V4.71338Z" fill="#53CD8B"/>
</svg>
