<svg width="14" height="13" viewBox="0 0 14 13" fill="none" xmlns="http://www.w3.org/2000/svg">
<path d="M13.1897 4.51714L9.22252 3.94058L7.44908 0.345269C7.40064 0.246832 7.32095 0.167144 7.22251 0.118707C6.97564 -0.00316804 6.67564 0.0983945 6.5522 0.345269L4.77876 3.94058L0.811577 4.51714C0.702202 4.53277 0.602202 4.58433 0.52564 4.66246C0.43308 4.75759 0.382075 4.88558 0.383833 5.0183C0.385591 5.15102 0.439968 5.27762 0.535015 5.37027L3.40533 8.16871L2.7272 12.1203C2.7113 12.2122 2.72147 12.3067 2.75656 12.3932C2.79166 12.4796 2.85027 12.5545 2.92575 12.6093C3.00123 12.6641 3.09056 12.6967 3.18361 12.7033C3.27666 12.71 3.36971 12.6904 3.4522 12.6468L7.00064 10.7812L10.5491 12.6468C10.646 12.6984 10.7585 12.7156 10.8663 12.6968C11.1381 12.65 11.321 12.3921 11.2741 12.1203L10.596 8.16871L13.4663 5.37027C13.5444 5.29371 13.596 5.19371 13.6116 5.08433C13.6538 4.81089 13.4631 4.55777 13.1897 4.51714Z" fill="#F7CC34"/>
</svg>
