<svg width="75" height="75" viewBox="0 0 75 75" fill="none" xmlns="http://www.w3.org/2000/svg">
<path d="M9.87239 23.0073C8.45896 26.1168 7.04554 28.9437 6.48016 32.0532C6.19748 32.9013 6.19748 33.184 6.19748 33.184C4.78405 38.555 4.78405 44.2087 5.63211 49.0144C7.04554 56.6469 11.0031 60.6045 13.2646 60.8871C16.3742 61.4525 19.7664 59.7564 23.1586 56.6469C26.8335 53.5373 37.0102 47.0356 42.6639 42.7953C48.3176 38.555 50.0137 27.8129 50.5791 17.9189C51.1445 8.02496 53.1233 5.1981 55.1021 2.65393C55.6674 1.80587 56.5155 1.2405 57.3636 0.957818C33.0526 -3.28246 15.5261 10.2864 9.87239 23.0073Z" fill="#DDDF4A"/>
<path d="M42.6639 10.852C33.618 17.0711 29.095 34.8803 25.9855 42.5128C22.8759 49.8626 18.6356 53.5375 16.9395 54.9509C15.2434 56.3644 13.2646 57.7778 13.5473 58.6259C13.83 59.4739 16.9395 58.0605 17.7876 57.2124C27.1162 48.7319 29.9431 35.4456 29.9431 35.4456C34.1833 17.6365 42.6639 10.852 42.6639 10.852ZM22.5932 36.8591C22.8759 33.1842 22.0279 21.0287 22.0279 18.4845C22.3106 13.3962 25.7028 9.43858 26.2681 8.59053C25.1374 10.004 21.1798 13.3962 21.4625 19.0499C21.7452 24.7036 22.3106 33.4668 21.1798 36.5764C20.0491 39.6859 18.9183 41.9474 19.4837 42.7955C19.4837 42.5128 22.3106 40.8167 22.5932 36.8591ZM26.2681 8.59053C26.5508 8.59053 26.5508 8.59053 26.2681 8.59053C26.5508 8.59053 26.5508 8.59053 26.2681 8.59053ZM38.4236 34.5976C35.8795 36.011 31.0738 36.8591 31.0738 38.5552C31.0738 39.9686 41.8159 35.7283 44.36 27.8131C44.36 27.5305 40.9678 32.9015 38.4236 34.5976ZM31.0738 21.3114C31.0738 20.746 29.6604 16.223 30.7911 13.1135C31.6392 9.72127 33.3353 6.89441 34.1833 6.04636C32.7699 7.74247 29.6604 11.9828 29.9431 18.2018C30.2257 24.7036 31.0738 21.8767 31.0738 21.3114ZM34.1833 6.04636L34.466 5.76367C34.466 5.76367 34.466 5.76367 34.1833 6.04636Z" fill="url(#paint0_linear_40_884)"/>
<path d="M28.8126 57.2125C32.2048 54.6683 42.6642 49.0146 45.4911 45.6224C48.3179 42.2302 51.4275 37.9899 51.1448 26.6825C50.8621 15.3751 50.2967 6.89449 55.9504 4.633C55.9504 4.633 60.1907 4.06763 59.908 1.80615C59.6253 -0.455338 56.2331 -0.172653 54.2543 2.37152C51.9928 4.91569 50.2967 7.74254 49.7313 17.6365C49.166 27.5305 47.7526 38.2726 42.0988 42.5129C36.4451 46.7531 26.5511 53.2549 22.8762 56.3645C19.484 59.474 16.0918 61.1701 12.9822 60.6047C9.87269 60.0394 3.37092 52.4069 5.06704 37.4245C5.06704 37.4245 5.91509 34.5977 4.21898 34.315C2.52287 34.0323 1.9575 37.1418 1.9575 37.1418C1.9575 37.1418 -0.303988 47.8839 1.9575 56.9298C4.21898 65.9758 6.76315 72.1948 11.5688 73.6083C11.5688 73.6083 14.961 73.891 15.8091 73.6083C16.9398 73.3256 18.6359 72.4775 20.0494 69.0853C21.7455 65.6931 25.1377 59.7567 28.8126 57.2125ZM42.3815 0.675404C42.3815 0.675404 28.5299 -0.738025 14.113 14.2443C14.113 14.2443 6.76315 23.2902 6.19778 27.8132C5.63241 32.6189 5.91509 33.1842 5.91509 33.1842C5.91509 33.1842 11.0034 4.633 42.3815 0.675404ZM74.6077 69.0853C74.325 68.5199 73.4769 69.368 73.4769 69.368C69.802 71.0641 65.5617 71.6295 64.7137 71.3468C63.5829 71.0641 64.7137 69.6507 64.9964 68.8026C65.2791 67.9546 64.1483 67.6719 63.5829 68.5199C60.4734 71.9122 50.2967 73.6083 57.9292 64.845C60.1907 62.3008 63.8656 60.8874 65.279 61.7355C66.6925 62.3008 66.1271 63.997 65.5617 64.845C65.5617 64.845 64.1483 66.2584 64.9964 66.5411C65.8444 66.8238 66.6925 65.9758 66.6925 65.9758C70.3674 62.0182 66.9752 55.5164 57.0812 63.4316C51.7101 67.6719 51.7101 73.0429 54.537 73.6083C57.3639 74.1736 62.1695 71.0641 62.1695 71.0641C61.8868 71.6295 61.8868 72.7602 63.3003 73.3256C65.2791 73.891 71.4981 71.0641 73.1942 70.216C74.8904 69.368 74.6077 69.0853 74.6077 69.0853ZM35.0317 56.9298C34.1836 58.0606 34.1836 59.474 35.0317 60.0394C35.8798 60.6047 37.0105 60.0394 37.8586 58.6259C38.7066 57.4952 38.7066 56.0818 37.8586 55.5164C37.0105 55.2337 35.8798 55.7991 35.0317 56.9298ZM47.4699 67.6719C48.0352 65.9758 52.5582 58.0606 52.5582 58.0606C52.5582 58.0606 56.7985 58.0606 58.2119 57.7779C59.6253 57.4952 58.2119 56.9298 58.2119 56.9298L53.4063 56.6471C53.4063 56.6471 57.9292 48.4493 62.4522 43.9263C63.3003 43.0782 65.5617 41.3821 62.4522 41.6648C59.6253 41.9475 57.9292 44.7743 57.6465 45.6224C57.3639 46.4705 51.9928 56.3645 51.9928 56.3645L47.1872 55.7991C47.1872 55.7991 46.0564 55.7991 46.0564 56.9298C46.0564 57.2125 46.0564 57.2125 46.0564 57.2125C46.0564 57.4952 46.3391 57.7779 46.6218 57.7779L50.8621 58.0606L44.9257 67.6719C44.9257 67.6719 40.12 69.6507 36.4451 70.7814C32.7702 71.9122 30.7914 70.7814 34.749 63.997C35.3144 63.1489 34.4663 62.0182 33.6183 62.0182C32.7702 62.0182 32.2048 64.5623 32.2048 64.5623C32.2048 64.5623 31.3568 66.8238 28.2472 67.9546C27.1165 68.5199 24.2897 68.5199 24.855 69.6507C25.4204 70.216 30.7914 67.9546 30.7914 67.9546C30.7914 67.9546 28.5299 72.4775 29.6607 73.3256C30.7914 74.4563 34.749 72.7602 34.749 72.7602L44.3603 69.0853C44.3603 69.0853 42.6642 72.4775 44.3603 73.6083C46.0564 74.739 50.5794 73.6083 51.1448 71.9122C52.5582 68.8026 44.9257 74.4563 47.4699 67.6719Z" fill="url(#paint1_linear_40_884)"/>
<defs>
<linearGradient id="paint0_linear_40_884" x1="13.4551" y1="32.3355" x2="44.4386" y2="32.3355" gradientUnits="userSpaceOnUse">
<stop stop-color="#00513A"/>
<stop offset="1" stop-color="#BBCF00"/>
</linearGradient>
<linearGradient id="paint1_linear_40_884" x1="37.9289" y1="73.9565" x2="37.9289" y2="0.605298" gradientUnits="userSpaceOnUse">
<stop stop-color="#005454"/>
<stop offset="1" stop-color="#BBCF00"/>
</linearGradient>
</defs>
</svg>
